<?xml version="1.0" standalone="no"?>
<!DOCTYPE svg PUBLIC "-//W3C//DTD SVG 20010904//EN"
 "http://www.w3.org/TR/2001/REC-SVG-20010904/DTD/svg10.dtd">
<svg version="1.0" xmlns="http://www.w3.org/2000/svg"
 width="700.000000pt" height="700.000000pt" viewBox="0 0 700.000000 700.000000"
 preserveAspectRatio="xMidYMid meet">
<metadata>
Created by potrace 1.14, written by Peter Selinger 2001-2017
</metadata>
<g transform="translate(0.000000,700.000000) scale(0.100000,-0.100000)"
fill="#ffffff" stroke="none">
<path d="M1481 6888 c-134 -19 -290 -103 -378 -204 -110 -128 -140 -204 -188
-479 -29 -171 -39 -228 -60 -340 -13 -71 -26 -146 -29 -165 -3 -19 -15 -84
-26 -145 -11 -60 -22 -123 -25 -140 -3 -16 -16 -91 -30 -165 -13 -74 -27 -155
-30 -180 -4 -24 -8 -47 -10 -50 -2 -3 -6 -21 -9 -40 -14 -93 -38 -232 -51
-295 -7 -38 -16 -88 -20 -110 -5 -35 -45 -260 -60 -340 -3 -16 -8 -46 -11 -65
-2 -19 -7 -42 -9 -50 -2 -8 -6 -28 -9 -45 -17 -102 -47 -272 -51 -285 -2 -8
-7 -33 -10 -55 -3 -23 -7 -52 -10 -65 -7 -37 -24 -131 -30 -165 -3 -16 -12
-66 -20 -110 -8 -44 -17 -96 -20 -115 -3 -19 -15 -87 -26 -150 -11 -63 -22
-126 -25 -140 -2 -14 -17 -99 -34 -190 -16 -91 -32 -178 -35 -195 -3 -16 -8
-46 -11 -65 -3 -19 -8 -46 -10 -60 -2 -14 -7 -36 -10 -50 -3 -13 -7 -38 -10
-55 -2 -16 -6 -41 -9 -55 -2 -14 -7 -36 -10 -50 -2 -14 -7 -41 -10 -60 -3 -19
-12 -71 -20 -115 -19 -106 -22 -125 -40 -225 -8 -47 -17 -96 -20 -110 -27
-128 -25 -273 4 -366 62 -192 195 -338 374 -411 59 -24 126 -39 382 -83 61
-11 121 -22 135 -24 22 -5 225 -40 515 -91 50 -9 135 -24 190 -35 55 -10 118
-21 140 -24 23 -4 52 -9 65 -11 25 -5 154 -28 220 -40 19 -3 73 -13 120 -21
47 -9 94 -18 105 -20 100 -17 204 -35 221 -38 12 -2 37 -7 55 -10 19 -3 60
-10 92 -16 70 -12 151 -27 197 -35 19 -3 73 -13 120 -22 47 -9 94 -17 105 -19
20 -2 230 -40 275 -49 14 -3 79 -14 145 -26 150 -25 164 -28 195 -34 14 -3 39
-7 55 -10 17 -3 41 -7 55 -10 14 -3 41 -7 60 -10 19 -3 61 -11 92 -17 74 -14
204 -4 291 21 188 55 356 215 422 400 16 47 20 64 35 151 6 30 12 66 15 80 3
14 10 54 16 90 5 36 13 68 17 72 4 4 39 16 77 27 39 11 176 51 305 89 598 177
637 191 767 289 186 140 304 347 338 593 3 25 8 52 10 60 2 8 7 31 10 50 3 19
24 136 46 260 22 124 47 261 54 305 8 44 16 89 18 100 6 28 16 83 23 130 3 22
17 99 30 170 14 72 27 146 30 165 3 19 11 69 19 110 8 41 17 91 20 110 3 19
17 96 30 170 13 74 27 151 31 170 3 19 19 107 34 195 39 214 37 344 -7 495
-53 184 -191 370 -355 477 -112 73 -219 112 -378 139 -47 7 -128 22 -165 29
-89 17 -188 35 -192 35 -5 0 2 62 13 113 2 12 7 38 9 57 3 19 8 46 11 59 7 31
6 158 -1 196 -24 124 -80 239 -168 341 -33 39 -125 108 -182 136 -73 37 -136
55 -267 77 -64 11 -127 23 -140 25 -13 3 -39 8 -58 11 -19 2 -44 6 -55 9 -11
2 -87 16 -170 30 -82 14 -163 29 -180 32 -16 3 -129 23 -250 45 -121 22 -258
46 -305 55 -47 8 -121 21 -165 29 -240 42 -322 56 -340 60 -42 9 -71 14 -105
19 -19 3 -47 8 -62 11 -52 9 -127 22 -171 29 -15 3 -35 7 -45 10 -9 3 -35 7
-57 11 -22 3 -65 10 -95 15 -30 5 -71 12 -90 15 -19 3 -57 10 -85 15 -70 14
-384 71 -420 76 -16 3 -52 9 -80 14 -27 5 -63 12 -80 15 -16 3 -109 19 -205
35 -201 35 -269 41 -359 28z m184 -434 c38 -6 243 -43 270 -48 66 -13 196 -36
230 -41 22 -3 86 -14 142 -25 56 -11 119 -22 140 -25 21 -2 74 -12 117 -20 44
-8 93 -18 110 -20 17 -3 54 -10 81 -15 28 -5 64 -12 80 -15 173 -30 214 -37
240 -41 17 -2 66 -11 110 -19 44 -9 105 -20 135 -25 30 -5 91 -16 135 -25 44
-8 96 -17 115 -20 19 -3 58 -10 85 -15 28 -5 66 -12 85 -16 36 -6 290 -50 345
-60 17 -3 66 -12 110 -20 142 -26 566 -101 670 -119 17 -2 41 -7 55 -10 13 -2
42 -7 64 -11 85 -12 151 -63 186 -142 24 -52 24 -80 5 -187 -7 -44 -16 -96
-20 -115 -16 -97 -88 -494 -100 -560 -8 -41 -17 -88 -19 -105 -3 -16 -12 -70
-21 -120 -9 -49 -18 -101 -20 -115 -2 -14 -6 -38 -9 -55 -3 -16 -24 -131 -46
-255 -22 -124 -44 -247 -50 -275 -5 -27 -17 -93 -25 -145 -9 -52 -18 -108 -21
-125 -3 -16 -9 -48 -14 -70 -5 -22 -11 -58 -14 -80 -4 -23 -9 -52 -11 -65 -3
-14 -8 -40 -11 -59 -3 -18 -8 -43 -10 -55 -2 -11 -6 -34 -9 -51 -3 -16 -7 -41
-10 -55 -3 -14 -7 -41 -10 -60 -3 -19 -14 -82 -25 -140 -31 -168 -112 -623
-115 -650 -2 -14 -18 -101 -35 -195 -34 -190 -32 -178 -59 -330 -11 -60 -23
-126 -26 -145 -3 -19 -13 -73 -21 -120 -9 -47 -18 -94 -20 -105 -1 -11 -22
-126 -45 -255 -23 -129 -43 -244 -44 -255 -12 -95 -72 -172 -154 -200 -52 -17
-70 -16 -216 10 -44 8 -97 17 -119 21 -21 3 -48 8 -60 10 -11 2 -59 11 -106
19 -95 17 -112 20 -225 40 -44 8 -93 17 -110 20 -16 3 -41 7 -55 10 -14 2 -90
16 -170 30 -80 13 -156 27 -169 30 -13 2 -103 18 -200 35 -97 17 -196 35 -221
40 -25 5 -61 11 -80 14 -19 4 -46 8 -60 11 -14 3 -77 14 -140 25 -63 11 -153
27 -200 36 -47 8 -134 24 -195 34 -60 11 -119 22 -130 24 -11 2 -40 7 -65 11
-52 9 -67 11 -135 24 -27 6 -63 12 -80 15 -49 7 -213 36 -320 56 -55 10 -120
22 -145 25 -24 4 -47 8 -50 10 -4 2 -29 7 -56 10 -209 27 -299 64 -342 142
-29 53 -34 103 -17 184 7 35 16 78 18 94 15 89 27 163 32 185 3 14 12 66 21
115 18 109 15 90 64 365 22 124 42 239 45 255 3 17 7 41 10 55 10 49 17 87 40
220 22 124 60 340 70 400 3 14 14 75 25 136 11 61 22 129 25 150 4 21 8 46 10
54 4 14 38 201 70 385 24 140 26 150 30 165 2 8 7 31 9 50 3 19 7 46 10 60 3
14 7 39 9 55 10 61 37 210 42 225 2 8 6 31 9 50 3 19 14 87 25 150 18 101 27
150 56 310 9 52 35 200 41 235 2 17 9 53 14 80 5 28 12 66 16 85 3 19 14 85
25 145 11 61 31 171 44 245 13 74 26 151 30 170 3 19 8 42 10 50 2 8 7 35 10
60 19 147 76 224 182 249 36 8 54 7 128 -5z m3945 -1578 c19 -3 49 -8 65 -11
17 -3 57 -10 90 -16 33 -6 71 -12 85 -15 14 -2 39 -6 55 -9 173 -31 314 -160
359 -330 18 -71 14 -167 -12 -300 -11 -55 -23 -118 -26 -140 -6 -34 -67 -379
-82 -455 -2 -14 -7 -41 -10 -60 -3 -19 -25 -145 -49 -280 -24 -135 -47 -261
-50 -280 -3 -19 -8 -42 -10 -50 -2 -8 -7 -37 -11 -65 -3 -27 -8 -52 -9 -55 -2
-3 -6 -24 -9 -46 -4 -22 -9 -51 -11 -64 -3 -14 -8 -41 -11 -60 -3 -19 -18
-107 -34 -195 -16 -88 -32 -178 -35 -200 -26 -179 -87 -288 -200 -361 -45 -28
-175 -74 -470 -164 -33 -11 -116 -37 -185 -58 -69 -22 -126 -36 -128 -32 -2 6
10 79 53 320 6 31 55 307 60 335 9 56 46 256 55 300 5 28 12 68 15 90 3 22 8
51 11 65 2 14 7 39 9 55 6 33 26 146 51 275 8 47 18 99 20 115 14 81 59 337
70 393 1 8 8 44 14 82 14 85 15 88 23 125 3 17 9 46 11 65 6 35 20 118 71 400
14 80 28 156 31 170 2 14 13 77 24 140 41 232 57 317 64 328 4 7 17 7 39 2 17
-5 48 -11 67 -14z"/>
<path d="M2222 5455 c-57 -17 -108 -58 -131 -104 -16 -31 -55 -207 -67 -301
-3 -24 -9 -59 -19 -110 -3 -14 -8 -38 -10 -55 -3 -16 -16 -91 -30 -165 -13
-74 -27 -153 -30 -175 -4 -22 -13 -71 -20 -110 -8 -38 -16 -86 -19 -105 -6
-37 -13 -78 -21 -120 -3 -14 -8 -43 -11 -65 -3 -22 -7 -42 -9 -45 -2 -3 -6
-26 -10 -50 -3 -25 -24 -142 -45 -260 -22 -118 -42 -231 -45 -250 -3 -19 -19
-111 -36 -205 -17 -93 -32 -181 -35 -195 -4 -23 -27 -155 -39 -225 -3 -16 -14
-77 -25 -135 -11 -58 -22 -121 -25 -140 -3 -19 -14 -82 -25 -140 -26 -146 -32
-181 -34 -215 -9 -119 105 -229 227 -220 56 5 125 43 157 87 26 36 49 111 64
210 3 21 19 111 35 200 16 90 32 180 35 200 3 21 10 57 15 80 5 24 12 63 16
88 3 25 8 52 10 60 2 8 6 31 9 50 3 19 8 46 11 60 3 14 12 66 21 115 22 129
23 137 29 165 3 14 14 79 25 145 11 66 27 154 35 195 15 79 21 109 30 175 4
22 8 47 10 55 2 8 7 31 10 50 3 19 17 96 30 170 14 74 26 146 29 160 2 14 11
63 19 110 9 47 19 105 22 130 4 24 8 47 10 50 2 3 6 24 9 46 4 22 9 51 11 64
3 14 18 102 35 195 16 94 33 188 37 210 5 22 8 72 8 110 0 61 -4 76 -30 115
-59 86 -146 122 -233 95z"/>
<path d="M3079 5305 c-83 -21 -148 -87 -163 -165 -3 -19 -8 -46 -11 -60 -6
-31 -10 -49 -30 -170 -21 -122 -24 -140 -30 -170 -3 -14 -12 -65 -21 -115 -20
-120 -19 -114 -43 -245 -29 -156 -57 -317 -76 -425 -8 -49 -17 -101 -20 -115
-4 -22 -17 -92 -29 -160 -2 -14 -9 -52 -15 -85 -6 -33 -13 -73 -15 -90 -3 -16
-10 -55 -16 -85 -6 -30 -29 -156 -50 -280 -22 -124 -42 -236 -44 -250 -13 -67
-86 -480 -91 -515 -4 -22 -8 -47 -10 -55 -2 -8 -7 -31 -10 -50 -33 -184 -26
-227 46 -298 89 -87 249 -70 323 35 27 39 56 156 79 318 4 22 11 65 17 95 6
30 13 69 15 85 3 17 8 43 11 58 3 16 7 38 8 50 2 12 6 36 9 52 4 17 9 46 12
65 3 19 13 73 21 120 9 47 18 96 20 110 3 14 15 86 29 160 13 74 27 151 30
170 6 39 32 183 65 365 12 66 24 131 26 145 5 30 15 88 20 115 34 187 87 485
89 500 3 20 31 182 39 221 2 12 7 39 10 60 4 22 8 46 11 54 2 8 6 31 9 50 3
19 13 76 22 125 26 136 27 211 2 259 -27 54 -55 83 -100 107 -49 25 -83 29
-139 14z"/>
<path d="M3945 5159 c-75 -17 -144 -69 -166 -126 -8 -22 -77 -382 -93 -488 -2
-11 -13 -74 -25 -140 -12 -66 -24 -131 -26 -145 -8 -41 -25 -138 -30 -165 -4
-24 -21 -120 -29 -160 -2 -11 -7 -40 -11 -65 -4 -25 -9 -52 -10 -60 -2 -8 -10
-60 -20 -115 -9 -55 -18 -102 -20 -105 -1 -3 -6 -25 -9 -50 -3 -25 -8 -54 -10
-65 -10 -51 -36 -194 -41 -225 -3 -19 -8 -46 -10 -60 -3 -14 -7 -36 -10 -50
-3 -14 -7 -36 -10 -50 -3 -14 -7 -41 -10 -60 -2 -19 -13 -87 -25 -150 -11 -63
-23 -126 -25 -140 -3 -14 -9 -50 -15 -80 -6 -30 -12 -68 -15 -85 -10 -64 -15
-91 -20 -115 -3 -14 -7 -38 -10 -55 -3 -16 -7 -41 -10 -55 -3 -14 -7 -41 -10
-60 -3 -19 -15 -84 -27 -145 -30 -160 -29 -219 5 -277 59 -101 189 -134 291
-74 62 36 93 86 110 177 23 118 25 128 46 249 11 63 22 126 25 140 6 29 1 -2
75 420 70 396 64 360 95 535 14 77 32 181 41 230 9 50 22 124 30 165 7 41 16
91 19 110 3 19 12 71 20 115 8 44 17 94 20 110 37 217 60 340 74 412 6 29 13
74 17 100 3 26 8 51 10 54 2 4 6 31 10 60 3 30 8 57 10 60 2 4 6 24 9 45 3 22
8 45 11 53 2 8 7 44 10 81 5 54 3 75 -13 111 -45 98 -143 158 -228 138z"/>
</g>
</svg>
